<svg xmlns="http://www.w3.org/2000/svg" version="1.0" viewBox="0 0 400.000000 300.000000" preserveAspectRatio="xMidYMid meet">
  <g transform="translate(0.000000,300.000000) scale(0.100000,-0.100000)" fill="#BDBDBD" stroke="none">
    <path d="M1620 2146 l-365 -213 -3 -199 -2 -199 405 -234 c398 -230 405 -234 405 -265 0 -25 -7 -36 -30 -49 l-29 -18 -373 216 -373 215 -3 -162 c-2 -121 1 -165 10 -173 14 -13 704 -410 728 -420 9 -3 88 37 185 93 l170 98 3 187 c1 104 -1 195 -6 204 -5 8 -186 118 -403 243 -388 224 -394 228 -397 261 l-3 34 231 133 230 133 373 -215 372 -215 3 162 c3 146 1 163 -15 175 -39 29 -726 422 -737 421 -6 0 -175 -96 -376 -213z" />
    <path d="M1857 1818 c-95 -55 -135 -84 -128 -91 5 -5 171 -103 368 -216 l358 -206 3 -198 c1 -108 6 -197 10 -197 4 0 68 35 142 78 l135 78 3 200 2 201 -371 214 c-204 118 -374 215 -378 216 -3 0 -68 -35 -144 -79z" />
  </g>
</svg>
